<?xml version="1.0" encoding="UTF-8" standalone="no"?>
<svg
   xmlns:dc="http://purl.org/dc/elements/1.1/"
   xmlns:cc="http://creativecommons.org/ns#"
   xmlns:rdf="http://www.w3.org/1999/02/22-rdf-syntax-ns#"
   xmlns:svg="http://www.w3.org/2000/svg"
   xmlns="http://www.w3.org/2000/svg"
   height="45.599998"
   width="47.099998"
   xml:space="preserve"
   viewBox="0 0 47.099999 45.599997"
   y="0px"
   x="0px"
   id="college_cafeteria"
   version="1.1"><metadata
   id="metadata12"><rdf:RDF><cc:Work
       rdf:about=""><dc:format>image/svg+xml</dc:format><dc:type
         rdf:resource="http://purl.org/dc/dcmitype/StillImage" /></cc:Work></rdf:RDF></metadata><defs
   id="defs10" />
<style
   id="style2"
   type="text/css">
	#college_cafeteria .st0{}
</style>
<g
   transform="translate(-0.9,-0.4)"
   id="XMLID_88_">
	<path
   d="m 29.4,24.4 1.9,-1.9 0.8,0.7 c 1.3,1.2 3.4,1.2 4.7,-0.1 l 11.2,-11 -1.2,-1.2 -11.2,11 c -0.6,0.6 -1.6,0.6 -2.3,0 l -2,-1.9 -4.4,4.4 16.6,15.9 c 0.7,0.6 0.7,1.7 0.1,2.4 -0.3,0.3 -0.7,0.6 -1.2,0.6 -0.5,0 -0.9,-0.1 -1.3,-0.5 L 24.1,27 8.1,43.5 C 7.7,43.9 7.2,44.1 6.7,44.1 6.2,44.1 5.6,43.9 5.3,43.5 4.9,43.1 4.7,42.6 4.7,42.1 4.7,41.6 4.9,41 5.3,40.7 L 21.9,23.8 17,18.6 15.7,19.7 C 15,20.3 14,20.2 13.3,19.6 l -9.5,-9 C 3,10.1 2.7,9.2 2.7,8.3 2.7,7.4 3,6.5 3.7,5.8 c 0.7,-0.7 1.5,-1 2.5,-1 0,0 0,0 0,0 0.9,0 1.8,0.4 2.5,1 L 24.2,21.5 29.1,16.8 27,14.5 c -0.6,-0.6 -0.6,-1.6 0,-2.2 L 36.9,1.6 35.6,0.4 25.6,11 c -1.2,1.3 -1.2,3.3 0,4.6 l 1,1.1 L 24.2,19 9.8,4.6 C 8.8,3.6 7.5,3 6.1,3 4.8,3 3.4,3.6 2.4,4.6 1.4,5.6 0.9,6.9 0.9,8.3 0.9,9.7 1.5,11 2.5,12 l 9.5,9 c 1.3,1.2 3.3,1.3 4.7,0.2 h 0.1 L 19.4,24 3.9,39.5 c -0.7,0.7 -1.1,1.7 -1.1,2.7 0,1 0.4,2 1.1,2.7 0.7,0.7 1.6,1.1 2.6,1.1 0,0 0,0 0.1,0 1,0 2,-0.4 2.7,-1.2 L 24.1,29.5 40,44.1 c 0.7,0.6 1.6,1 2.5,0.9 0.9,0 1.8,-0.5 2.4,-1.2 1.3,-1.4 1.2,-3.5 -0.2,-4.8 z"
   class="st0"
   id="XMLID_89_" fill="#002e4b"/>
	
		<rect
   height="1.8"
   width="12.4"
   class="st0"
   transform="matrix(-0.6901,0.7237,-0.7237,-0.6901,70.9024,-9.1191)"
   y="9.6999998"
   x="31.200001"
   id="XMLID_90_" fill="#002e4b"/>
</g>
</svg>