<?xml version="1.0" encoding="UTF-8" standalone="no"?>
<svg
   xmlns:dc="http://purl.org/dc/elements/1.1/"
   xmlns:cc="http://creativecommons.org/ns#"
   xmlns:rdf="http://www.w3.org/1999/02/22-rdf-syntax-ns#"
   xmlns:svg="http://www.w3.org/2000/svg"
   xmlns="http://www.w3.org/2000/svg"
   height="20.6"
   width="10.5"
   xml:space="preserve"
   viewBox="0 0 10.5 20.6"
   y="0px"
   x="0px"
   id="fb_icon"
   version="1.1"><metadata
   id="metadata10"><rdf:RDF><cc:Work
       rdf:about=""><dc:format>image/svg+xml</dc:format><dc:type
         rdf:resource="http://purl.org/dc/dcmitype/StillImage" /></cc:Work></rdf:RDF></metadata><defs
   id="defs8" />
<style
   id="style2"
   type="text/css">
	
</style>
<path
   d="m 0,6.7 h 2.9 c 0,-0.1 0,-0.2 0,-0.3 0,-0.9 0,-1.7 0,-2.6 C 3,2.4 3.6,1.3 4.8,0.5 5.4,0.2 6,0 6.7,0 c 1.2,0 2.4,0 3.6,0 0,1.2 0,2.3 0,3.5 -0.1,0 -0.2,0 -0.2,0 -0.7,0 -1.4,0 -2,0 -0.5,0 -0.9,0.3 -0.9,0.9 0,0.7 0,1.5 0,2.3 1.1,0 2.2,0 3.3,0 v 3.6 c -1,0 -2.3,0 -3.3,0 0,3.4 0,6.9 0,10.3 -1.4,0 -2.8,0 -4.3,0 V 10.3 H 0 V 7 Z" fill=" #004480"
   class="st0"
   id="XMLID_106_" />
</svg>