<?xml version="1.0" encoding="UTF-8" standalone="no"?>
<svg
   xmlns:dc="http://purl.org/dc/elements/1.1/"
   xmlns:cc="http://creativecommons.org/ns#"
   xmlns:rdf="http://www.w3.org/1999/02/22-rdf-syntax-ns#"
   xmlns:svg="http://www.w3.org/2000/svg"
   xmlns="http://www.w3.org/2000/svg"
   height="54.799999"
   width="56.862846"
   xml:space="preserve"
   viewBox="0 0 56.862847 54.799998"
   y="0px"
   x="0px"
   id="health-club"
   class="health-club"
   version="1.1"><metadata
   id="metadata13"><rdf:RDF><cc:Work
       rdf:about=""><dc:format>image/svg+xml</dc:format><dc:type
         rdf:resource="http://purl.org/dc/dcmitype/StillImage" /></cc:Work></rdf:RDF></metadata><defs
   id="defs11" />
<style
   id="style2"
   type="text/css">
	 
</style>
<g
   transform="translate(-0.5,-0.6)"
   id="XMLID_377_">
	<path
   d="m 56.4,11.9 c -0.7,-0.7 -1.6,-1.1 -2.6,-1.1 0,0 0,0 0,0 -1,0 -1.9,0.4 -2.6,1.1 l -2.5,2.7 c -1.4,1.4 -3.6,1.5 -5,0.2 L 38,9.8 C 37.3,9.3 36.6,9 35.9,9 h -8 c -1.7,0 -3.3,0.5 -4.6,1.4 H 12.5 c -0.5,0 -0.9,0.4 -0.9,0.9 0,0.5 0.4,0.9 0.9,0.9 h 8.8 l -5.6,5.9 c -0.3,0.3 -0.6,0.8 -0.7,1.2 H 4.6 c -0.5,0 -0.9,0.4 -0.9,0.9 0,0.5 0.4,0.8 0.9,0.8 h 10.2 c 0.1,0.8 0.6,1.5 1.2,2 1.4,1.1 3.5,1 4.7,-0.4 l 4.7,-5.4 C 26,16.4 27,16 28,16 h 1.1 l -7.3,8.2 H 10.1 c -0.5,0 -0.9,0.4 -0.9,0.9 0,0.5 0.5,0.9 0.9,0.9 h 10.1 l -5,5.6 c -0.9,1 -2.2,1.6 -3.6,1.6 h -7 c -2.3,0 -4.1,1.9 -4.1,4.1 0,2.3 1.8,4.1 4.1,4.1 l 11.7,0.1 c 1.9,0 3.7,-0.8 5,-2.2 l 5.1,-5.7 3.1,3.2 c 1.5,1.5 2.2,3.7 1.9,5.7 L 30.1,51 c -0.3,2.1 1.2,4.1 3.3,4.4 0.2,0 0.4,0 0.6,0 0.8,0 1.6,-0.3 2.3,-0.8 0.8,-0.6 1.4,-1.5 1.5,-2.6 L 39.5,39.8 C 40,37 39.1,34.1 37.1,32.1 l -5.1,-5 6.7,-6.8 1.5,1.5 c 3.1,3 7.9,3 11,0 l 5.1,-4.9 c 1.4,-1.3 1.4,-3.6 0.1,-5 z m -1.4,3.8 -5,5 c -2.4,2.3 -6.1,2.3 -8.5,0 l -2.8,-2.7 -9.2,9.3 6.3,6.2 c 1.6,1.6 2.4,3.9 1.9,6.2 L 36,51.8 c -0.1,0.6 -0.4,1.1 -0.8,1.4 -0.5,0.3 -1,0.5 -1.6,0.4 -1.2,-0.2 -2,-1.2 -1.8,-2.4 L 33,42.8 c 0.4,-2.6 -0.5,-5.3 -2.3,-7.2 L 26.3,31 19.9,38.1 c -0.9,1 -2.2,1.6 -3.6,1.6 0,0 0,0 0,0 H 4.6 c -1.3,0 -2.4,-1.1 -2.4,-2.4 0,-1.3 1.1,-2.4 2.4,-2.4 h 6.9 c 1.9,0 3.7,-0.8 4.9,-2.2 L 33,14.2 h -5 c -1.5,0 -3,0.7 -4,1.8 l -4.7,5.4 c -0.6,0.7 -1.6,0.7 -2.2,0.2 -0.4,-0.3 -0.6,-0.7 -0.6,-1.2 0,-0.5 0.1,-0.9 0.4,-1.2 l 6.2,-6.5 c 1.2,-1.3 3,-2.1 4.8,-2.1 h 8 c 0.3,0 0.6,0.1 0.8,0.3 l 5.7,5 c 2.2,1.9 5.5,1.8 7.5,-0.3 l 2.5,-2.7 c 0.4,-0.4 0.8,-0.6 1.4,-0.6 0,0 0,0 0,0 0.5,0 1,0.2 1.4,0.6 0.6,0.9 0.6,2.1 -0.2,2.8 z"
   class="st0"
   id="XMLID_432_" fill="#002e4b" />
	<path
   d="m 46.4,12.2 c 3.2,0 5.8,-2.6 5.8,-5.8 0,-3.2 -2.6,-5.8 -5.8,-5.8 -3.2,0 -5.8,2.6 -5.8,5.8 0,3.2 2.6,5.8 5.8,5.8 z m 0,-9.8 c 2.2,0 4,1.8 4,4 0,2.2 -1.8,4 -4,4 -2.2,0 -4,-1.8 -4,-4 0,-2.2 1.8,-4 4,-4 z"
   class="st0"
   id="XMLID_435_" fill="#002e4b"/>
	<path
   d="m 1.4,16.3 h 11.1 c 0.5,0 0.9,-0.4 0.9,-0.9 0,-0.5 -0.4,-0.9 -0.9,-0.9 H 1.4 c -0.5,0 -0.9,0.4 -0.9,0.9 0,0.5 0.4,0.9 0.9,0.9 z"
   class="st0"
   id="XMLID_436_" fill="#002e4b"/>
</g>
</svg>