<?xml version="1.0" encoding="UTF-8" standalone="no"?>
<svg
   xmlns:dc="http://purl.org/dc/elements/1.1/"
   xmlns:cc="http://creativecommons.org/ns#"
   xmlns:rdf="http://www.w3.org/1999/02/22-rdf-syntax-ns#"
   xmlns:svg="http://www.w3.org/2000/svg"
   xmlns="http://www.w3.org/2000/svg"
   height="37.799999"
   width="62.099998"
   xml:space="preserve"
   viewBox="0 0 62.099999 37.799999"
   y="0px"
   x="0px"
   id="hostel_facilities"
   version="1.1"><metadata
   id="metadata10"><rdf:RDF><cc:Work
       rdf:about=""><dc:format>image/svg+xml</dc:format><dc:type
         rdf:resource="http://purl.org/dc/dcmitype/StillImage" /></cc:Work></rdf:RDF></metadata><defs
   id="defs8" />
<style
   id="style2"
   type="text/css">
	#hostel_facilities .st0{}
</style>
<path
   d="M 53.4,11.1 V 22.6 H 51.5 C 51.3,19.4 50.2,16.8 48.2,14.9 44,10.8 37.3,11.1 37.1,11.1 H 25 l 0.7,1.3 c 2.1,4 1.1,8.6 0.6,10.2 h -8 c 2.6,-0.3 4.7,-2.5 4.7,-5.2 0,-2.9 -2.3,-5.2 -5.2,-5.2 -2.9,0 -5.2,2.3 -5.2,5.2 0,2.7 2.1,4.9 4.7,5.2 H 8.7 V 0 H 0 v 37.8 h 8.7 v -6.5 h 44.7 v 6.5 h 8.7 V 11.1 Z m -39.1,6.4 c 0,-1.9 1.6,-3.5 3.5,-3.5 1.9,0 3.5,1.6 3.5,3.5 0,1.9 -1.7,3.4 -3.6,3.4 -1.9,0 -3.4,-1.5 -3.4,-3.4 z m 13.5,-4.7 h 9.3 c 0.1,0 6.2,-0.2 9.9,3.4 1.7,1.6 2.6,3.8 2.8,6.4 H 28.1 c 0.5,-1.9 1.2,-5.9 -0.3,-9.8 z M 6.9,36.1 H 1.8 V 1.8 H 7 v 20.9 8.7 4.7 z m 1.8,-6.6 v -5.2 h 44.7 v 5.2 z m 51.6,6.6 h -5.2 v -4.8 -8.7 -9.8 h 5.2 z"
   class="st0"
   id="XMLID_461_" fill="#002e4b"/>
</svg>