<?xml version="1.0" encoding="UTF-8" standalone="no"?>
<svg
   xmlns:dc="http://purl.org/dc/elements/1.1/"
   xmlns:cc="http://creativecommons.org/ns#"
   xmlns:rdf="http://www.w3.org/1999/02/22-rdf-syntax-ns#"
   xmlns:svg="http://www.w3.org/2000/svg"
   xmlns="http://www.w3.org/2000/svg"
   height="31.450001"
   width="31.338543"
   xml:space="preserve"
   viewBox="0 0 31.338544 31.45"
   y="0px"
   x="0px"
   id="totopicon"
   version="1.1"><metadata
   id="metadata8"><rdf:RDF><cc:Work
       rdf:about=""><dc:format>image/svg+xml</dc:format><dc:type
         rdf:resource="http://purl.org/dc/dcmitype/StillImage" /></cc:Work></rdf:RDF></metadata><defs
   id="defs6" />
<path
   d="M 30.95,14.85 16.55,0.45 c -0.6,-0.6 -1.6,-0.6 -2.1,0 l -14,14 c -0.6,0.6 -0.6,1.5 0,2.1 0.6,0.6 1.5,0.6 2.1,0 l 11.6,-11.6 v 25 c 0,0.8 0.7,1.5 1.5,1.5 0.8,0 1.5,-0.7 1.5,-1.5 V 5.35 l 11.7,11.7 c 0.3,0.3 0.7,0.4 1.1,0.4 0.4,0 0.8,-0.1 1.1,-0.4 0.4,-0.7 0.4,-1.6 -0.1,-2.2 z"
   id="XMLID_4_" />
</svg>