<?xml version="1.0" encoding="UTF-8" standalone="no"?>
<svg
   xmlns:dc="http://purl.org/dc/elements/1.1/"
   xmlns:cc="http://creativecommons.org/ns#"
   xmlns:rdf="http://www.w3.org/1999/02/22-rdf-syntax-ns#"
   xmlns:svg="http://www.w3.org/2000/svg"
   xmlns="http://www.w3.org/2000/svg"
   height="18.432463"
   width="22.5"
   xml:space="preserve"
   viewBox="0 0 22.5 18.432463"
   y="0px"
   x="0px"
   id="twtr_icon"
   version="1.1"><metadata
   id="metadata10"><rdf:RDF><cc:Work
       rdf:about=""><dc:format>image/svg+xml</dc:format><dc:type
         rdf:resource="http://purl.org/dc/dcmitype/StillImage" /></cc:Work></rdf:RDF></metadata><defs
   id="defs8" />
<style
   id="style2"
   type="text/css">
	
</style>
<path
   d="m 0,16.507348 c 0,0 4.1,0.1 6.7,-2 0,0 -3,-0.2 -4.2,-3.3 0,0 1.5,0.2 1.9,-0.2 0,0 -3.4,-0.4 -3.6,-4.5000001 0,0 1.4,0.6 2.1,0.5 0,0 -3.4,-2.8 -1.4,-6.1 0,0 4.2,5 9.6,4.8 -0.1,0 -0.2,-1 -0.2,-1 0,-0.8 0.3,-1.7 0.8,-2.4 1.3,-1.7 3.8,-2.9 5.9,-2 0.3,0.1 0.5,0.3 0.8,0.5 0.1,0.1 0.6,0.7 0.6,0.7 0,0 2.2,-0.4 2.9,-1.1 0,0 -0.2,1.2 -1.7,2.4 0,0 1.8,-0.2 2.3,-0.6 0,0 -1.1,1.8 -2.2,2.3 0,0 0.4,5.2 -3.4,9.5000001 -3.8,4.3 -10.4,6.1 -16.9,2.5 z" fill=" #004480"
   class="st0"
   id="XMLID_106_" />
</svg>