<?xml version="1.0" encoding="UTF-8" standalone="no"?>
<svg
   xmlns:dc="http://purl.org/dc/elements/1.1/"
   xmlns:cc="http://creativecommons.org/ns#"
   xmlns:rdf="http://www.w3.org/1999/02/22-rdf-syntax-ns#"
   xmlns:svg="http://www.w3.org/2000/svg"
   xmlns="http://www.w3.org/2000/svg"
   height="41.900002"
   width="53.400002"
   xml:space="preserve"
   viewBox="0 0 53.400001 41.9"
   y="0px"
   x="0px"
   id="digital_library"
   version="1.1"><metadata
   id="metadata12"><rdf:RDF><cc:Work
       rdf:about=""><dc:format>image/svg+xml</dc:format><dc:type
         rdf:resource="http://purl.org/dc/dcmitype/StillImage" /></cc:Work></rdf:RDF></metadata><defs
   id="defs10" />
<style
   id="style2"
   type="text/css">
	#digital_library .st0{}
</style>
<g
   transform="translate(-1.4,-1)"
   id="XMLID_440_">
	<path
   d="M 54.8,1 H 41.1 C 41,1 30.9,1.3 28.1,9.1 25.3,1.3 15.2,1 15.1,1 H 1.4 v 32.7 h 3.2 v 2.7 c 0,0.5 0.2,1 0.6,1.4 0.4,0.4 0.9,0.6 1.4,0.6 1.8,0 5.7,0 12,0 6.6,0 8.1,2.8 8.4,3.8 0.1,0.4 0.1,0.6 0.1,0.7 h 1 1 c 0,-0.1 0,-0.3 0.1,-0.6 0.3,-1 1.8,-3.8 8.4,-3.8 6.3,0 10.2,0 12,0 0.5,0 1,-0.2 1.4,-0.6 0.4,-0.4 0.6,-0.9 0.6,-1.4 v -2.7 h 3.2 V 1 Z M 41.1,2.8 H 47 v 13.5 l -3.3,-3.1 -3,3 V 2.8 c 0.2,0 0.4,0 0.4,0 z m -38,0 H 15 c 0.5,0 12,0.3 12,10.7 V 37.4 C 25.6,35 23.1,32.5 18.6,32.1 L 3.1,32 Z m 15.5,33.8 c -6.3,0 -10.2,0 -12,0 -0.1,0 -0.1,0 -0.1,-0.1 0,0 -0.1,-0.1 -0.1,-0.1 v -2.6 l 12.1,0.1 c 3.7,0.3 5.8,2.3 7,4.3 -1.5,-0.9 -3.7,-1.6 -6.9,-1.6 z m 31.2,-0.2 c 0,0.1 0,0.1 -0.1,0.1 0,0 -0.1,0.1 -0.1,0.1 -1.8,0 -5.7,0 -12,0 -3.2,0 -5.4,0.7 -6.9,1.5 1.2,-2 3.3,-3.9 6.9,-4.3 L 49.8,33.7 Z M 53,32 37.5,32.1 c -4.5,0.4 -7,2.8 -8.4,5.3 V 13.5 C 29.1,5.8 35.4,3.6 38.8,3 v 17.4 l 4.8,-4.8 5.1,4.7 V 2.8 H 53 Z"
   class="st0"
   id="XMLID_485_" fill="#002e4b"/>
	<path
   d="M 10.6,10.6 V 23.5 L 21,17.2 Z m 1.7,3.2 5.4,3.4 -5.4,3.2 z"
   class="st0"
   id="XMLID_492_" fill="#002e4b"/>
</g>
</svg>