<?xml version="1.0" encoding="UTF-8" standalone="no"?>
<svg
   xmlns:dc="http://purl.org/dc/elements/1.1/"
   xmlns:cc="http://creativecommons.org/ns#"
   xmlns:rdf="http://www.w3.org/1999/02/22-rdf-syntax-ns#"
   xmlns:svg="http://www.w3.org/2000/svg"
   xmlns="http://www.w3.org/2000/svg"
   height="35.5"
   width="62"
   xml:space="preserve"
   viewBox="0 0 62 35.499999"
   y="0px"
   x="0px"
   id="transport_fascility"
   version="1.1"><metadata
   id="metadata10"><rdf:RDF><cc:Work
       rdf:about=""><dc:format>image/svg+xml</dc:format><dc:type
         rdf:resource="http://purl.org/dc/dcmitype/StillImage" /></cc:Work></rdf:RDF></metadata><defs
   id="defs8" />
<style
   id="style2"
   type="text/css">
	#transport_fascility .st0{}
</style>
<path
   d="m 61.9,6.2 v -2 C 61.9,1.9 60,0 57.7,0 H 4.2 C 1.9,0 0,1.9 0,4.2 v 20.4 c 0,2.5 3,4.2 5.8,4.2 H 8 c 0.2,3.7 3.2,6.7 7,6.7 3.8,0 6.8,-3 7,-6.7 h 21.4 c 0.2,3.7 3.2,6.7 7,6.7 3.8,0 6.8,-3 7,-6.7 h 0.4 c 2.3,0 4.2,-1.9 4.2,-4.2 v -11 h -9.1 l -5.7,-5 V 1.8 h 10.7 c 1.3,0 2.4,1.1 2.4,2.4 v 2 z M 16.4,13.6 V 1.8 H 29.3 V 13.6 Z M 4.2,1.8 H 14.7 V 13.6 H 1.7 V 4.2 C 1.7,2.9 2.8,1.8 4.2,1.8 Z M 15,33.7 c -2.9,0 -5.3,-2.4 -5.3,-5.3 0,-2.9 2.4,-5.3 5.3,-5.3 2.9,0 5.3,2.4 5.3,5.3 -0.1,3 -2.4,5.3 -5.3,5.3 z m 35.4,0 c -2.9,0 -5.3,-2.4 -5.3,-5.3 0,-2.9 2.4,-5.3 5.3,-5.3 2.9,0 5.3,2.4 5.3,5.3 -0.1,3 -2.4,5.3 -5.3,5.3 z m 9.8,-9.1 c 0,1.3 -1.1,2.4 -2.4,2.4 h -0.6 c -0.7,-3.2 -3.5,-5.6 -6.9,-5.6 -3.4,0 -6.2,2.4 -6.9,5.6 H 21.8 C 21.1,23.8 18.3,21.4 14.9,21.4 11.5,21.4 8.7,23.8 8,27 H 5.8 c -2,0 -4,-1.2 -4,-2.4 v -9.3 h 58.4 z m -10.1,-11 h -19 V 1.8 h 14.2 v 7.5 z"
   class="st0"
   id="XMLID_90_" fill="#002e4b"/>
</svg>