<svg fill="#bd943c" height="39.799999" width="45.200001" id="Capa_1" enable-background="new 0 0 511.996 511.996" viewBox="0 0 511.996 511.996"  xmlns="http://www.w3.org/2000/svg"><g><path d="m424.63 131.57c-2.314-3.434-6.979-4.349-10.416-2.034-3.434 2.316-4.346 6.969-2.031 10.404 1.398 2.146 3.708 3.339 6.088 3.403 1.469.04 2.966-.351 4.291-1.214 3.47-2.261 4.45-6.908 2.189-10.378-.021-.033-.098-.148-.121-.181zm-16.615 169.503-.167.226c-2.418 3.364-1.68 8.088 1.684 10.506 1.276.917 2.739 1.382 4.195 1.421 2.381.065 4.745-1.008 6.245-3.095l.008-.011c2.499-3.304 1.844-8.008-1.459-10.506-3.304-2.497-8.01-1.846-10.506 1.459zm-25.53-203.399c2.279-3.459 1.323-8.11-2.136-10.389l-.083-.055c-3.458-2.278-8.067-1.294-10.348 2.164-2.279 3.459-1.28 8.138 2.179 10.416 1.21.798 2.566 1.199 3.916 1.235 2.506.069 4.991-1.122 6.472-3.371zm-16.767 241.51c-3.577 2.089-4.784 6.682-2.696 10.258 1.357 2.326 3.774 3.649 6.281 3.717 1.35.037 2.726-.291 3.977-1.021l.086-.051c3.577-2.088 4.742-6.656 2.653-10.233-2.088-3.576-6.723-4.757-10.301-2.67zm82.278-149.269c-.737-4.076-4.641-6.784-8.715-6.045-4.076.737-6.782 4.639-6.046 8.715l.018.099c.643 3.556 3.696 6.07 7.17 6.164.509.014 1.025-.024 1.546-.118 4.076-.737 6.782-4.639 6.046-8.715zm-25.465 86.597-.127.273c-1.683 3.785.02 8.217 3.805 9.901.926.411 1.889.621 2.842.647 2.919.079 5.736-1.562 7.024-4.374 1.773-3.736.188-8.203-3.545-9.985-3.737-1.783-8.215-.201-9.999 3.538zm-17.656-169.165c-.035-.037-.142-.144-.178-.18-2.939-2.917-7.708-2.918-10.625.022-2.918 2.94-2.919 7.67.022 10.588 1.42 1.468 3.294 2.231 5.186 2.282 1.946.053 3.91-.647 5.418-2.107 2.978-2.88 3.057-7.628.177-10.605zm-16.048 214.902c-.038.034-.15.135-.187.17-3.037 2.817-3.242 7.586-.425 10.623 1.433 1.546 3.36 2.357 5.307 2.41 1.878.051 3.774-.604 5.267-1.988l.012-.011c3.094-2.754 3.369-7.495.615-10.589-2.756-3.094-7.495-3.368-10.589-.615zm59.463-258.447c-41.081-41.081-95.703-63.706-153.804-63.706-82.845 0-158.147 47.003-194.798 120.636l-2.542-2.542c-16.513-16.552-36.898-6.314-52.995 5.916-.152.116-.3.239-.446.368-34.586 29.212-50.8 75.567-40.775 120.571.9 4.042 4.909 6.587 8.951 5.69 4.043-.901 6.591-4.909 5.689-8.952-8.304-37.278 3.915-75.612 30.838-101.371l79.857 79.858-10.446 6.441c-13.143 8.104-18.405 24.327-12.513 38.577 13.91 33.644 34.16 63.4 60.188 88.44 23.578 22.685 50.968 40.553 81.407 53.11 14.196 5.856 30.382.578 38.477-12.552l6.447-10.456 79.851 79.851c-25.759 26.925-64.096 39.144-101.373 30.839-54.983-12.249-111.628-45.358-159.498-93.229-39.614-39.614-69.085-85.089-85.229-131.509-1.36-3.912-5.633-5.982-9.548-4.621-3.912 1.361-5.98 5.635-4.62 9.547 16.883 48.545 47.585 95.985 88.789 137.189 49.861 49.861 109.114 84.403 166.844 97.264 49.541 11.074 103.982-12.231 131.367-55.657 7.646-12.401 5.792-28.258-4.51-38.561l-57.913-57.913c-6.811-6.81-16.201-10.076-25.771-8.956-9.565 1.12-17.951 6.463-23.006 14.662l-14.598 23.677c-4.216 6.838-12.622 9.596-19.989 6.558-28.694-11.836-54.509-28.677-76.727-50.053-24.527-23.596-43.613-51.644-56.728-83.362-3.064-7.413-.321-15.856 6.524-20.077l23.666-14.592c8.199-5.055 13.543-13.44 14.662-23.007 1.12-9.567-2.145-18.96-8.955-25.771l-44.144-44.145c9.075-19.425 20.999-36.952 35.146-52.171l6.344 6.344c1.464 1.465 3.384 2.197 5.303 2.197s3.839-.732 5.304-2.197c2.929-2.929 2.929-7.678-.001-10.606l-6.338-6.338c35.004-32.47 81.007-52.142 130.307-53.959v7.266c0 4.142 3.357 7.5 7.5 7.5s7.5-3.358 7.5-7.5v-7.25c50.187 1.837 95.765 22.02 130.218 54.032l-6.263 6.263c-2.929 2.929-2.929 7.678.001 10.606 1.464 1.465 3.384 2.197 5.303 2.197s3.839-.732 5.304-2.197l6.262-6.263c32.012 34.454 52.195 80.031 54.031 130.218h-7.252c-4.143 0-7.5 3.358-7.5 7.5s3.357 7.5 7.5 7.5h7.254c-1.796 49.077-21.163 95.074-53.94 130.312l-6.412-6.412c-2.929-2.929-7.678-2.93-10.606 0-2.93 2.929-2.93 7.677-.001 10.606l6.399 6.399c-8.316 7.711-17.327 14.803-27.014 21.146-3.465 2.27-4.435 6.918-2.165 10.383 1.439 2.198 3.837 3.392 6.281 3.392 1.409 0 2.835-.397 4.103-1.227 61.681-40.394 98.507-108.469 98.507-182.1.002-58.1-22.622-112.722-63.704-153.803zm-148.313 306.807c2.633-4.27 7-7.053 11.981-7.636 4.984-.582 9.875 1.117 13.422 4.664l57.912 57.912c5.357 5.357 6.328 13.598 2.367 20.052-.007.011-.013.022-.02.033-1.37 2.222-2.82 4.372-4.328 6.467l-81.395-81.395zm-155.519-183.892c3.548 3.547 5.247 8.439 4.664 13.421-.582 4.982-3.365 9.349-7.636 11.981l-.098.06-81.401-81.402c2.095-1.509 4.247-2.96 6.47-4.33 6.458-3.984 14.718-3.016 20.081 2.349zm305.907 35.121.003-.1c.001-.039.002-.078.002-.117.002-.039.003-.078.004-.117l.003-.1c.112-4.141-3.153-7.588-7.294-7.7s-7.588 3.154-7.7 7.294l-.003.1c-.001.039-.002.078-.002.117-.002.039-.003.078-.004.117l-.002.1c-.112 4.141 3.153 7.588 7.294 7.7s7.587-3.153 7.699-7.294zm-115.701 40.979h.02c4.133 0 7.489-3.345 7.5-7.48l.037-14.402h2.108c4.143 0 7.5-3.358 7.5-7.5s-3.357-7.5-7.5-7.5h-2.069l.109-42.53c.029-4.084-3.42-7.539-7.5-7.52h-8.38c-2.687 0-5.168 1.437-6.505 3.768l-28.718 50.05c-1.332 2.321-1.326 5.175.015 7.491 1.341 2.315 3.814 3.741 6.49 3.741h29.449l-.037 14.363c-.01 4.142 3.34 7.508 7.481 7.519zm-23.942-36.882 16.612-28.952-.074 28.952zm128.115 32.99c3.531.095 6.735-2.325 7.519-5.885.943-4.023-1.547-8.053-5.57-9.008-4.028-.955-8.073 1.534-9.03 5.565l-.069.308c-.84 4.056 1.767 8.025 5.823 8.866.445.091.888.142 1.327.154zm.503-99.266c-1.498-3.862-5.844-5.778-9.704-4.28-3.862 1.498-5.779 5.843-4.28 9.705.018.049.075.191.095.239 1.17 2.836 3.885 4.591 6.771 4.669 1.01.027 2.042-.151 3.035-.561 3.829-1.579 5.667-5.929 4.088-9.759zm-294.973 100.637c.91 3.24 3.816 5.383 7.014 5.469.73.02 1.476-.068 2.217-.274 3.991-1.111 6.325-5.246 5.214-9.236-.019-.067-.066-.23-.086-.296-1.221-3.958-5.419-6.177-9.378-4.956-3.93 1.213-6.144 5.36-4.981 9.293zm11.754 29.439c1.321 2.443 3.8 3.854 6.39 3.924 1.269.034 2.566-.254 3.765-.901 3.628-1.959 4.987-6.484 3.059-10.121-1.879-3.639-6.338-5.103-10.013-3.269-3.707 1.85-5.212 6.353-3.362 10.06.037.074.122.235.161.307zm-10.906-60.978-.09.007 1.211-.074zm140.157 34.06c4.131 0 7.486-3.343 7.499-7.477.013-4.142-3.335-7.51-7.477-7.523l-24.063-.074c4.38-5.598 10.564-13.856 18.792-25.612 5.716-8.167 8.531-14.332 9.544-22.314 1.904-15.003-12.733-27.422-26.411-27.422-12.621 0-23.546 8.979-25.975 21.349-.798 4.064 1.85 8.007 5.914 8.805 4.072.797 8.007-1.851 8.805-5.914 1.052-5.354 5.785-9.24 11.256-9.24 7.174 0 12.876 6.35 11.218 12.984-.945 3.782-3.178 8.204-6.64 13.15-17.917 25.599-25.746 33.972-25.811 34.041-4.586 4.863-1.952 15.174 5.396 15.13l37.927.116h.026zm-95.549-139.856c2.828-3.027 2.666-7.773-.361-10.601-3.028-2.827-7.773-2.665-10.601.362l-.179.196c-2.76 3.089-2.516 7.854.572 10.614 1.383 1.236 3.092 1.87 4.805 1.916 2.117.057 4.24-.781 5.764-2.487zm22.924-29.61c-2.415-3.365-7.099-4.137-10.466-1.722-.024.017-.129.093-.152.11-3.323 2.443-4.01 7.082-1.585 10.42 1.417 1.952 3.615 3.01 5.867 3.071 1.597.043 3.222-.416 4.613-1.414 3.366-2.414 4.138-7.1 1.723-10.465zm-33.699 225.397c1.71.046 3.446-.489 4.887-1.643 3.233-2.589 3.756-7.309 1.167-10.543-.07-.087-.142-.174-.215-.26-2.69-3.151-7.425-3.522-10.574-.833-3.123 2.667-3.516 7.344-.9 10.494 1.435 1.778 3.516 2.728 5.635 2.785zm-6.162-172.764.122-.206c2.072-3.586.86-8.198-2.726-10.271-3.589-2.072-8.16-.871-10.232 2.716l-.01.016c-2.139 3.547-.998 8.157 2.55 10.296 1.15.693 2.41 1.042 3.663 1.076 2.613.07 5.187-1.229 6.633-3.627zm32.344 180.741c-.022-.019-.122-.1-.145-.118-3.22-2.588-7.911-2.068-10.509 1.143-2.599 3.211-2.095 7.932 1.106 10.543l.022.018c1.34 1.102 2.946 1.661 4.555 1.705 2.234.06 4.472-.874 6.001-2.734 2.631-3.2 2.17-7.926-1.03-10.557zm34.146-247.32c-1.702-3.776-6.143-5.456-9.919-3.754-.03.013-.149.068-.179.082-3.736 1.743-5.319 6.155-3.6 9.903 1.229 2.68 3.863 4.28 6.638 4.355 1.106.03 2.235-.182 3.306-.666 3.776-1.702 5.458-6.144 3.754-9.92zm-10.406 263.032c-3.656-1.953-8.198-.573-10.15 3.08s-.573 8.198 3.08 10.149l.175.092c1.039.538 2.144.809 3.239.839 2.784.075 5.501-1.411 6.868-4.051 1.904-3.679.466-8.205-3.212-10.109zm127.588-260.077c1.521-3.837-.368-8.19-4.196-9.731l-.022-.009c-3.841-1.559-8.213.288-9.771 4.126-1.559 3.838.289 8.212 4.126 9.771.032.013.156.063.189.075.828.323 1.676.488 2.515.511 3.054.083 5.966-1.733 7.159-4.743zm-110.456 275.819c-1.141 3.982 1.161 8.135 5.142 9.276l.096.028c.621.178 1.245.272 1.86.288 3.33.09 6.406-2.084 7.369-5.445 1.142-3.982-1.209-8.148-5.191-9.29-3.983-1.143-8.135 1.162-9.276 5.143zm74.433-279.34c3.644.099 6.912-2.477 7.575-6.175.732-4.077-1.981-7.975-6.057-8.706-.012-.002-.121-.021-.131-.023-4.074-.714-7.906 2.017-8.627 6.089-.722 4.072 2.039 7.969 6.109 8.699.38.068.757.106 1.131.116zm-59.779 1.455c.623.017 1.257-.043 1.891-.188 4.037-.925 6.561-4.947 5.637-8.984-.923-4.038-4.941-6.558-8.984-5.638l-.097.022c-4.037.924-6.513 4.936-5.589 8.974.779 3.404 3.795 5.724 7.142 5.814zm30.153-3.74c.019 0 .086-.002.105-.003 4.129-.13 7.35-3.576 7.235-7.705-.117-4.13-3.565-7.399-7.705-7.287-.019 0-.086.002-.105.003-4.129.13-7.35 3.576-7.235 7.705.112 3.999 3.358 7.18 7.312 7.287.13.004.261.004.393 0z"/></g></svg>