<?xml version="1.0" encoding="UTF-8" standalone="no"?>
<svg
   xmlns:dc="http://purl.org/dc/elements/1.1/"
   xmlns:cc="http://creativecommons.org/ns#"
   xmlns:rdf="http://www.w3.org/1999/02/22-rdf-syntax-ns#"
   xmlns:svg="http://www.w3.org/2000/svg"
   xmlns="http://www.w3.org/2000/svg"
   height="54"
   width="60.056194"
   xml:space="preserve"
   viewBox="-469 471 60.056194 54"
   id="icon-duration"
   version="1.1"><metadata
   id="metadata18"><rdf:RDF><cc:Work
       rdf:about=""><dc:format>image/svg+xml</dc:format><dc:type
         rdf:resource="http://purl.org/dc/dcmitype/StillImage" /></cc:Work></rdf:RDF></metadata><defs
   id="defs16" />
<style
   id="style2"
   type="text/css">
	#icon-duration .st0{fill:#BD943C;}
	#icon-duration .st1{fill:#002E4B;}
</style>
<g
   transform="translate(0.075,-3)"
   id="XMLID_2_">
	<g
   id="XMLID_48_">
		<g
   id="XMLID_56_">
			<path
   style="fill:#bd943c"
   d="m -462,502.3 c -0.4,0 -0.7,-0.1 -0.9,-0.4 -0.1,-0.1 -0.2,-0.3 -0.3,-0.4 -0.1,-0.2 -0.1,-0.3 -0.1,-0.5 0,-0.4 0.1,-0.7 0.4,-0.9 0.5,-0.5 1.4,-0.5 1.9,0 0.2,0.2 0.4,0.6 0.4,0.9 0,0.2 0,0.3 -0.1,0.5 -0.1,0.2 -0.2,0.3 -0.3,0.4 -0.1,0.1 -0.3,0.2 -0.4,0.3 -0.2,0.1 -0.4,0.1 -0.6,0.1 z"
   class="st0"
   id="XMLID_57_" />
		</g>
		<g
   id="XMLID_49_">
			<path
   style="fill:#bd943c"
   d="m -461.4,495.5 c -0.7,-0.2 -1.1,-0.9 -0.9,-1.6 v 0 c 0.2,-0.7 0.9,-1.1 1.6,-0.9 v 0 c 0.7,0.2 1.1,0.9 0.9,1.6 v 0 c -0.2,0.6 -0.7,1 -1.3,1 v 0 c -0.1,0 -0.2,0 -0.3,-0.1 z m 2.2,-6.4 c -0.6,-0.3 -0.8,-1.1 -0.4,-1.8 v 0 0 0 c 0.4,-0.6 1.2,-0.9 1.8,-0.5 v 0 c 0.6,0.4 0.9,1.2 0.5,1.8 v 0 c -0.3,0.4 -0.7,0.7 -1.2,0.7 v 0 c -0.2,0 -0.4,0 -0.7,-0.2 z m 3.9,-5.5 c -0.5,-0.5 -0.5,-1.4 0,-1.9 v 0 c 0.5,-0.5 1.4,-0.5 1.9,0 v 0 c 0.5,0.5 0.5,1.4 0,1.9 v 0 c -0.3,0.3 -0.6,0.4 -0.9,0.4 v 0 c -0.4,-0.1 -0.7,-0.2 -1,-0.4 z m 5.2,-4.5 c -0.4,-0.6 -0.2,-1.5 0.5,-1.8 v 0 c 0.6,-0.3 1.4,-0.1 1.8,0.5 v 0 c 0.4,0.6 0.1,1.5 -0.5,1.8 v 0 c -0.2,0.1 -0.4,0.2 -0.7,0.2 v 0 c -0.4,0 -0.9,-0.2 -1.1,-0.7 z m 6.1,-2.9 c -0.2,-0.7 0.2,-1.4 0.9,-1.6 v 0 c 0.7,-0.2 1.5,0.2 1.6,0.9 v 0 c 0.2,0.7 -0.2,1.4 -0.9,1.6 v 0 c -0.1,0 -0.2,0.1 -0.3,0.1 v 0 c -0.6,0 -1.1,-0.4 -1.3,-1 z"
   class="st0"
   id="XMLID_50_" />
		</g>
	</g>
	<path
   style="fill:#002e4b"
   d="m -436,528 c -5.8,0 -11.5,-1.8 -16.2,-5.4 -6.8,-5.2 -10.8,-13 -10.8,-21.6 0,-0.6 0.4,-1 1,-1 0.6,0 1,0.4 1,1 0,7.9 3.7,15.2 10,20 6.4,4.8 14.6,6.2 22.5,3.9 7.8,-2.3 14,-8.5 16.3,-16.3 2.3,-7.9 0.9,-16.1 -3.9,-22.5 -4.6,-6.4 -11.9,-10.1 -19.9,-10.1 -0.6,0 -1,-0.4 -1,-1 0,-0.6 0.4,-1 1,-1 8.6,0 16.5,3.9 21.6,10.8 5.2,6.9 6.7,15.7 4.2,24.3 -2.5,8.4 -9.2,15.2 -17.7,17.7 -2.7,0.8 -5.4,1.2 -8.1,1.2 z"
   class="st1"
   id="XMLID_6_" />
	<path
   style="fill:#bd943c"
   d="m -426.6,511.4 c -0.3,0 -0.6,-0.1 -0.8,-0.3 l -10.1,-8.1 c -0.7,-0.6 -1.1,-1.4 -1.1,-2.3 v -16.8 c 0,-0.7 0.6,-1.3 1.3,-1.3 0.7,0 1.3,0.6 1.3,1.3 v 16.7 c 0,0.1 0,0.2 0.1,0.2 l 10.1,8.2 c 0.6,0.5 0.7,1.3 0.2,1.9 -0.2,0.3 -0.6,0.5 -1,0.5 z"
   class="st0"
   id="XMLID_5_" />
	<path
   style="fill:#002e4b"
   d="m -456.3,506.3 c -0.3,0 -0.7,-0.1 -0.9,-0.4 l -4.8,-4.8 -4.8,4.8 c -0.5,0.5 -1.4,0.5 -1.9,0 -0.5,-0.5 -0.5,-1.4 0,-1.9 l 6.7,-6.7 6.6,6.6 c 0.5,0.5 0.5,1.4 0,1.9 -0.2,0.3 -0.5,0.5 -0.9,0.5 z"
   class="st1"
   id="XMLID_4_" />
</g>
</svg>