<?xml version="1.0" encoding="UTF-8" standalone="no"?>
<svg
   xmlns:dc="http://purl.org/dc/elements/1.1/"
   xmlns:cc="http://creativecommons.org/ns#"
   xmlns:rdf="http://www.w3.org/1999/02/22-rdf-syntax-ns#"
   xmlns:svg="http://www.w3.org/2000/svg"
   xmlns="http://www.w3.org/2000/svg"
   height="59.799999"
   width="53.599998"
   xml:space="preserve"
   viewBox="0 0 53.6 59.799999"
   id="icon-language"
   version="1.1"><metadata
   id="metadata17"><rdf:RDF><cc:Work
       rdf:about=""><dc:format>image/svg+xml</dc:format><dc:type
         rdf:resource="http://purl.org/dc/dcmitype/StillImage" /></cc:Work></rdf:RDF></metadata><defs
   id="defs15" />
<style
   id="style2"
   type="text/css">
	#icon-language .st0{fill:#002E4B;}
	#icon-language .st1{fill:#BD943C;}
</style>
<g
   transform="translate(-0.6,-0.2)"
   id="XMLID_169_">
	<path
   style="fill:#002e4b"
   d="M 15.3,60 V 53.8 H 14.1 C 6.7,53.8 0.6,47.7 0.6,40.3 V 13.7 C 0.6,6.3 6.7,0.2 14.1,0.2 h 26.6 c 7.4,0 13.5,6.1 13.5,13.5 v 26.6 c 0,7.4 -6.1,13.5 -13.5,13.5 H 29 Z M 14.1,2.2 C 7.7,2.2 2.6,7.3 2.6,13.7 v 26.6 c 0,6.4 5.2,11.5 11.5,11.5 h 3.1 v 5.1 l 11.3,-5.1 h 12.1 c 6.4,0 11.5,-5.2 11.5,-11.5 V 13.7 C 52.1,7.3 46.9,2.2 40.6,2.2 Z"
   class="st0"
   id="XMLID_184_" />
	<g
   id="XMLID_53_">
		<path
   style="fill:#bd943c"
   d="m 18.6,21.5 -0.5,1.8 c -0.1,0.5 -0.6,0.8 -1,0.8 h -0.8 c -0.7,0 -1.2,-0.7 -1,-1.4 l 3.3,-10.8 c 0.1,-0.5 0.6,-0.8 1,-0.8 h 2.3 c 0.5,0 0.9,0.3 1,0.8 l 3.4,10.8 c 0.2,0.7 -0.3,1.4 -1,1.4 h -0.9 c -0.5,0 -0.9,-0.3 -1,-0.8 l -0.5,-1.8 c -0.1,-0.5 -0.6,-0.8 -1,-0.8 h -2.1 c -0.6,0 -1.1,0.3 -1.2,0.8 z m 2.1,-3 c 0.7,0 1.2,-0.7 1,-1.4 L 21.3,15.7 C 21.1,14.9 20.8,14 20.6,13.2 v 0 C 20.4,14 20.2,15 20,15.7 l -0.4,1.4 c -0.2,0.7 0.4,1.4 1.1,1.4 z"
   class="st1"
   id="XMLID_54_" />
	</g>
	<g
   id="XMLID_48_">
		<path
   style="fill:#bd943c"
   d="m 17.1,30.3 c 0,-0.6 0.4,-1 1,-1.1 0.8,-0.1 1.8,-0.1 2.8,-0.1 1.8,0 2.9,0.2 3.8,0.7 0.9,0.5 1.6,1.4 1.6,2.5 0,1.2 -0.7,2.2 -2.1,2.8 v 0 c 1.5,0.4 2.6,1.5 2.6,3.2 0,1.2 -0.5,2.1 -1.4,2.8 -0.9,0.8 -2.5,1.2 -5.1,1.2 -0.9,0 -1.6,0 -2.2,-0.1 -0.6,0 -1,-0.5 -1,-1.1 z m 3,4.1 h 1 c 1.5,0 2.4,-0.6 2.4,-1.6 0,-1 -0.8,-1.5 -2.1,-1.5 -0.6,0 -1,0 -1.3,0.1 z m 0,5.7 c 0.3,0 0.6,0 1.1,0 1.3,0 2.5,-0.5 2.5,-1.9 0,-1.3 -1.2,-1.8 -2.6,-1.8 h -1 z"
   class="st1"
   id="XMLID_49_" />
	</g>
	<g
   id="XMLID_2_">
		<path
   style="fill:#bd943c"
   d="m 41.1,33.6 c 0.1,0.6 -0.2,1.1 -0.8,1.3 -0.6,0.1 -1.4,0.2 -2.4,0.2 -4.5,0 -6.8,-2.8 -6.8,-6.5 0,-4.4 3.2,-6.9 7.1,-6.9 0.8,0 1.6,0.1 2.1,0.2 0.6,0.1 1,0.7 0.8,1.3 L 41,23.5 c -0.1,0.6 -0.7,0.9 -1.3,0.8 -0.4,-0.1 -0.9,-0.2 -1.5,-0.2 -2.3,0 -4.1,1.4 -4.1,4.3 0,2.6 1.5,4.2 4.2,4.2 0.5,0 0.9,-0.1 1.4,-0.1 0.6,-0.1 1.2,0.3 1.3,0.9 z"
   class="st1"
   id="XMLID_5_" />
	</g>
</g>
</svg>