<?xml version="1.0" encoding="UTF-8" standalone="no"?>
<svg
   xmlns:dc="http://purl.org/dc/elements/1.1/"
   xmlns:cc="http://creativecommons.org/ns#"
   xmlns:rdf="http://www.w3.org/1999/02/22-rdf-syntax-ns#"
   xmlns:svg="http://www.w3.org/2000/svg"
   xmlns="http://www.w3.org/2000/svg"
   height="59.700001"
   width="50.346256"
   xml:space="preserve"
   viewBox="0 0 50.346258 59.700001"
   id="icon-program"
   version="1.1"><metadata
   id="metadata15"><rdf:RDF><cc:Work
       rdf:about=""><dc:format>image/svg+xml</dc:format><dc:type
         rdf:resource="http://purl.org/dc/dcmitype/StillImage" /></cc:Work></rdf:RDF></metadata><defs
   id="defs13" />
<style
   id="style2"
   type="text/css">
	#icon-program .st0{fill:#002E4B;}
	#icon-program .st1{fill:#BD943C;}
</style>
<g
   transform="translate(-0.28744053,-0.3)"
   id="XMLID_2_">
	<path
   style="fill:#002e4b"
   d="M 25.4,60 24.6,59 C 22.4,56.2 18.4,55.1 14.5,54 12.7,53.5 11,53 9.5,52.4 5.5,50.7 2.4,47.3 1,43.1 -0.5,38.4 0.4,33.1 3.4,28.2 8.5,20.2 3.3,13.9 1.6,12.2 1.3,11.9 1.2,11.5 1.2,11.1 1.2,10.7 1.4,10.3 1.7,10 L 12.8,0.7 c 0.6,-0.5 1.4,-0.5 2,0.1 l 4,3.9 5.8,-4.1 c 0.5,-0.4 1.2,-0.4 1.7,0 l 5.8,4.1 4,-3.9 c 0.5,-0.5 1.4,-0.6 2,-0.1 L 49.2,10 c 0.3,0.3 0.5,0.7 0.5,1.1 0,0.4 -0.1,0.8 -0.4,1.1 -1.7,1.7 -6.9,8 -1.8,16 3.1,4.9 3.9,10.2 2.4,14.9 -1.4,4.2 -4.4,7.6 -8.5,9.3 -1.5,0.6 -3.2,1.1 -5,1.6 -3.9,1.1 -7.9,2.3 -10.1,5 z M 3.6,11.1 c 2,2.2 7.2,9.3 1.7,18.1 -2.7,4.3 -3.5,9 -2.2,13.2 1.2,3.7 3.8,6.6 7.3,8 1.4,0.6 3,1 4.8,1.5 3.6,1 7.7,2.2 10.4,4.8 2.7,-2.6 6.7,-3.8 10.4,-4.8 1.7,-0.5 3.3,-1 4.8,-1.5 3.5,-1.4 6.1,-4.3 7.3,-8 1.3,-4.1 0.5,-8.8 -2.2,-13.2 -5.5,-8.8 -0.4,-15.9 1.7,-18.1 L 37.2,2.6 33.2,6.5 C 32.7,7 31.9,7 31.3,6.6 L 25.5,2.5 19.7,6.6 C 19,7 18.2,7 17.7,6.5 l -4,-3.9 z"
   class="st0"
   id="XMLID_52_" />
	<path
   style="fill:#002e4b"
   d="m 25.4,43.2 c -7.5,0 -13.7,-6.1 -13.7,-13.7 0,-7.6 6.1,-13.7 13.7,-13.7 7.5,0 13.7,6.1 13.7,13.7 0,7.6 -6.1,13.7 -13.7,13.7 z m 0,-25.3 c -6.4,0 -11.6,5.2 -11.6,11.6 0,6.4 5.2,11.6 11.6,11.6 C 31.8,41.1 37,35.9 37,29.5 37,23.1 31.8,17.9 25.4,17.9 Z"
   class="st0"
   id="XMLID_49_" />
	<path
   style="fill:#bd943c"
   d="m 21.3,35.8 -0.9,-0.6 0.1,-0.5 1.4,-4.4 -4.1,-3 0.3,-1 h 0.6 4.6 l 1.6,-4.9 H 26 l 0.2,0.5 1.4,4.4 h 5.1 l 0.4,1 -0.4,0.4 -3.7,2.7 1.6,4.9 L 29.8,36 29.3,35.7 25.6,33 Z m -0.6,-8.2 2.9,2.1 -0.1,0.5 -1,2.9 2.9,-2.1 0.5,0.3 2.5,1.8 -1.1,-3.4 0.4,-0.4 2.5,-1.8 h -3.6 l -0.2,-0.5 -1,-3 -1.1,3.4 h -0.6 -3 z"
   class="st1"
   id="XMLID_5_" />
	<rect
   style="fill:#bd943c"
   height="2"
   width="14.7"
   class="st1"
   y="11.2"
   x="17.799999"
   id="XMLID_80_" />
	<rect
   style="fill:#bd943c"
   height="2"
   width="14.7"
   class="st1"
   y="45.799999"
   x="17.799999"
   id="XMLID_57_" />
</g>
</svg>