<svg fill="#bd943c" height="39.799999" width="45.200001" viewBox="0 -24 480 480"  xmlns="http://www.w3.org/2000/svg"><path d="m456 72h-76.40625l-56.839844-63.945312c-4.554687-5.121094-11.082031-8.05078175-17.9375-8.054688h-129.632812c-6.855469.00390625-13.378906 2.933594-17.9375 8.054688l-56.839844 63.945312h-76.40625c-13.25.015625-23.984375 10.75-24 24v312c.015625 13.25 10.75 23.984375 24 24h432c13.25-.015625 23.984375-10.75 24-24v-312c-.015625-13.25-10.75-23.984375-24-24zm-286.792969-53.320312c1.519531-1.703126 3.695313-2.679688 5.976563-2.679688h129.632812c2.285156 0 4.457032.976562 5.976563 2.679688l47.394531 53.320312h-34.449219l-26.214843-31.390625c-4.554688-5.460937-11.304688-8.617187-18.417969-8.609375h-78.210938c-7.117187-.007812-13.867187 3.152344-18.421875 8.617188l-26.210937 31.382812h-34.449219zm133.691407 53.320312h-125.792969l17.644531-21.125c1.519531-1.824219 3.769531-2.878906 6.144531-2.875h78.210938c2.371093-.003906 4.621093 1.046875 6.140625 2.867188zm161.101562 336c-.003906 4.417969-3.582031 7.996094-8 8h-432c-4.417969-.003906-7.996094-3.582031-8-8v-312c.003906-4.417969 3.582031-7.996094 8-8h432c4.417969.003906 7.996094 3.582031 8 8zm0 0"/><path d="m416 112h-352c-13.25.015625-23.984375 10.75-24 24v176c.015625 13.25 10.75 23.984375 24 24h352c13.25-.015625 23.984375-10.75 24-24v-176c-.015625-13.25-10.75-23.984375-24-24zm8 200c-.003906 4.417969-3.582031 7.996094-8 8h-352c-4.417969-.003906-7.996094-3.582031-8-8v-176c.003906-4.417969 3.582031-7.996094 8-8h352c4.417969.003906 7.996094 3.582031 8 8zm0 0"/><path d="m277.53125 205.875c-2.976562-4.566406-8.105469-7.261719-13.554688-7.125-5.433593.066406-10.457031 2.902344-13.328124 7.515625l-27.023438 43.25-42.945312-61.351563c-2.890626-4.125-7.558594-6.652343-12.59375-6.8125-5.039063-.160156-9.855469 2.058594-13.007813 5.992188l-22.921875 28.65625h-28.15625v16h28.15625c4.863281.011719 9.460938-2.199219 12.492188-6l22.921874-28.664062 42.945313 61.351562c2.984375 4.285156 7.878906 6.832031 13.097656 6.820312h.417969c5.371094-.136718 10.3125-2.957031 13.160156-7.515624l27.027344-43.242188 6.75 10.125c2.964844 4.457031 7.960938 7.132812 13.3125 7.125h91.71875v-16h-91.71875zm0 0"/><path d="m384 352c-13.253906 0-24 10.746094-24 24s10.746094 24 24 24 24-10.746094 24-24c-.015625-13.25-10.75-23.984375-24-24zm0 32c-4.417969 0-8-3.582031-8-8s3.582031-8 8-8 8 3.582031 8 8c-.003906 4.417969-3.582031 7.996094-8 8zm0 0"/><path d="m328 352h-16c-8.832031.011719-15.988281 7.167969-16 16v16c.011719 8.832031 7.167969 15.988281 16 16h16c8.832031-.011719 15.988281-7.167969 16-16v-16c-.011719-8.832031-7.167969-15.988281-16-16zm-16 32v-16h16l.011719 16zm0 0"/><path d="m264 352h-16c-8.832031.011719-15.988281 7.167969-16 16v16c.011719 8.832031 7.167969 15.988281 16 16h16c8.832031-.011719 15.988281-7.167969 16-16v-16c-.011719-8.832031-7.167969-15.988281-16-16zm-16 32v-16h16l.011719 16zm0 0"/><path d="m200 352h-16c-8.832031.011719-15.988281 7.167969-16 16v16c.011719 8.832031 7.167969 15.988281 16 16h16c8.832031-.011719 15.988281-7.167969 16-16v-16c-.011719-8.832031-7.167969-15.988281-16-16zm-16 32v-16h16l.011719 16zm0 0"/></svg>