<?xml version="1.0" encoding="iso-8859-1"?>
<!-- Generator: Adobe Illustrator 19.0.0, SVG Export Plug-In . SVG Version: 6.00 Build 0)  -->
<svg  fill="#bd943c" height="39.799999" width="45.200001" version="1.1" id="Capa_1" xmlns="http://www.w3.org/2000/svg" xmlns:xlink="http://www.w3.org/1999/xlink" x="0px" y="0px"
	 viewBox="0 0 496 496" style="enable-background:new 0 0 496 496;" xml:space="preserve">
<g>
	<g>
		<g>
			<path d="M128,184H24c-4.408,0-8-3.592-8-8v-48h96v-16H16V64c0-4.408,3.592-8,8-8h104V40H24C10.768,40,0,50.768,0,64v112
				c0,13.232,10.768,24,24,24h104V184z"/>
			<path d="M472,40H368v16h104c4.408,0,8,3.592,8,8v48h-96v16h96v48c0,4.408-3.592,8-8,8H368v16h104c13.232,0,24-10.768,24-24V64
				C496,50.768,485.232,40,472,40z"/>
			<path d="M448,480H208V272H64v208H48V216H32v280h432V216h-16V480z M192,480H80V288h112V480z"/>
			<rect x="96" y="376" width="16" height="16"/>
			<path d="M224,368h96v-96h-96V368z M280,288h24v24h-24V288z M280,328h24v24h-24V328z M240,288h24v24h-24V288z M240,328h24v24h-24
				V328z"/>
			<path d="M432,272h-96v96h96V272z M376,352h-24v-24h24V352z M376,312h-24v-24h24V312z M416,352h-24v-24h24V352z M416,312h-24v-24
				h24V312z"/>
			<path d="M248,240c66.168,0,120-53.832,120-120S314.168,0,248,0S128,53.832,128,120S181.832,240,248,240z M248,16
				c57.344,0,104,46.656,104,104s-46.656,104-104,104s-104-46.656-104-104S190.656,16,248,16z"/>
			<path d="M215.6,200c12.712,0,24.664-4.952,33.656-13.944l64.808-64.808C323.048,112.264,328,100.312,328,87.6
				c0-26.248-21.352-47.6-47.6-47.6c-12.712,0-24.664,4.952-33.656,13.944l-64.808,64.808C172.952,127.736,168,139.688,168,152.4
				C168,178.648,189.352,200,215.6,200z M193.256,130.056L224,99.312l34.344,34.344l11.312-11.312L235.312,88l22.744-22.744
				C264.024,59.288,271.96,56,280.4,56c17.424,0,31.6,14.176,31.6,31.6c0,8.44-3.288,16.376-9.256,22.344l-64.808,64.808
				c-5.96,5.96-13.896,9.248-22.336,9.248c-17.424,0-31.6-14.176-31.6-31.6C184,143.96,187.288,136.024,193.256,130.056z"/>
		</g>
	</g>
</g>
<g>
</g>
<g>
</g>
<g>
</g>
<g>
</g>
<g>
</g>
<g>
</g>
<g>
</g>
<g>
</g>
<g>
</g>
<g>
</g>
<g>
</g>
<g>
</g>
<g>
</g>
<g>
</g>
<g>
</g>
</svg>
