<svg fill="#bd943c" height="39.799999" width="45.200001" id="Capa_1" enable-background="new 0 0 508.975 508.975"  viewBox="0 0 508.975 508.975"  xmlns="http://www.w3.org/2000/svg"><g><g id="Lines_3_"><path d="m188.336 106.724v62.286h-13.573v-48.416h-64.97v48.416h-15.575l-94.218 99.527v150.826h53.357c1.674 11.62 7.175 22.014 15.183 29.868h-47.404v15h189.7v-15h-69.018c8.008-7.853 13.509-18.248 15.183-29.868h169.337c1.674 11.62 7.175 22.014 15.183 29.868h-20.571v15h158.355v-15h-64.506c8.008-7.853 13.509-18.248 15.183-29.868h78.993v-62.745-49.838-200.056zm-63.543 28.871h34.97v33.416h-34.97zm-52.278 78.16h56.984v50.269h-104.572zm-57.515 65.268h129.499v-80.269h-57.784l13.958-14.745h87.663v122.769h-138.85v-8.973h-34.486zm0 71.568v-37.785h19.486v37.785zm34.486-28.812h138.85v19.838h-138.85zm55.693 127.451c-20.604 0-37.367-16.763-37.367-37.368s16.763-37.367 37.367-37.367 37.367 16.763 37.367 37.367-16.763 37.368-37.367 37.368zm51.821-44.868c-3.65-25.334-25.494-44.867-51.822-44.867s-48.172 19.533-51.822 44.867h-38.356v-38.771h34.486v-8.973h138.85v47.745h-31.336zm221.16 44.868c-20.604 0-37.368-16.763-37.368-37.368s16.764-37.367 37.368-37.367 37.367 16.763 37.367 37.367-16.762 37.368-37.367 37.368zm115.815-44.868h-63.993c-3.65-25.334-25.494-44.867-51.822-44.867-26.329 0-48.173 19.533-51.823 44.867h-123.001v-47.745h290.639zm0-82.583v19.838h-290.639v-19.838h57.552v-15h-57.552v-185.055h290.639v185.055h-217.466v15z"/><path d="m370.493 404.362h15.333v15h-15.333z"/><path d="m99.179 404.362h15.333v15h-15.333z"/><path d="m327.331 286.414h54.807v-43.214h40.8v-57.163h-40.8v-43.214h-54.807v43.214h-40.799v57.163h40.799zm-25.799-58.215v-27.163h40.799v-43.214h24.807v43.214h40.8v27.163h-40.8v43.214h-24.807v-43.214z"/><path d="m225.836 449.23h15v15h-15z"/><path d="m255.836 449.23h15v15h-15z"/><path d="m161.119 77.632h36.975v15h-36.975z" transform="matrix(.866 -.5 .5 .866 -18.503 101.21)"/><path d="m134.176 44.745h15v36.976h-15z"/><path d="m96.245 66.644h15v36.975h-15z" transform="matrix(.5 -.866 .866 .5 -21.854 132.411)"/></g><path d="m291.575 150.322h-15v-15h15zm-30 0h-15v-15h15zm-30 0h-15v-15h15z"/></g></svg>