<svg fill="#bd943c" height="39.799999" width="45.200001" id="Layer_3"  enable-background="new 0 0 64 64"  viewBox="0 0 64 64"  xmlns="http://www.w3.org/2000/svg"><path d="m62 55h-1v-3c0-.552-.448-1-1-1h-1v-20.63c.182-.159.363-.319.536-.492l.343-.343c2.013-2.012 3.121-4.688 3.121-7.535 0-3.47-1.017-6.829-2.941-9.715l-7.227-10.84c-.371-.557-1.293-.557-1.664 0l-5.185 7.778-13.468-8.08c-.317-.19-.712-.19-1.029 0l-30 18 .009.015c-.291.174-.495.478-.495.842v6c0 .552.448 1 1 1h1v3c0 .552.448 1 1 1h1v20h-1c-.552 0-1 .448-1 1v3h-1c-.552 0-1 .448-1 1v6c0 .552.448 1 1 1h60c.552 0 1-.448 1-1v-6c0-.552-.448-1-1-1zm-11 0v-2h8v2zm-26 0v-16h6v16zm8-16h6v16h-6zm7-2h-16c-.552 0-1 .448-1 1v17h-8v-3c0-.552-.448-1-1-1h-1v-20h1c.552 0 1-.448 1-1v-3h27.212v-.061c.386.736.866 1.424 1.424 2.061h-23.636c-.552 0-1 .448-1 1v4c0 .552.448 1 1 1h24c.552 0 1-.448 1-1v-3.63c1.69 1.478 3.771 2.378 6 2.584v18.046h-1c-.552 0-1 .448-1 1v3h-8v-17c0-.552-.448-1-1-1zm-37-12v-4h38.037c-.019.332-.037.665-.037 1 0 1.031.15 2.037.431 3zm40 6v2h-22v-2zm14 20h-4v-18.046c1.414-.131 2.766-.547 4-1.205zm-5-47.197 6.395 9.592c1.704 2.556 2.605 5.532 2.605 8.605 0 2.312-.9 4.486-2.536 6.122l-.343.343c-1.635 1.635-3.809 2.535-6.121 2.535s-4.486-.9-6.122-2.536l-.343-.343c-1.635-1.635-2.535-3.809-2.535-6.121 0-3.073.901-6.049 2.605-8.605zm-20-.637 12.872 7.723-.931 1.396c-1.362 2.043-2.26 4.326-2.674 6.715h-35.657zm-19 23.834v2h-8v-2zm-6 4h4v20h-4zm-2 22h8v2h-8zm56 8h-58v-4h58z"/><path d="m32 17c2.757 0 5-2.243 5-5s-2.243-5-5-5-5 2.243-5 5 2.243 5 5 5zm0-8c1.654 0 3 1.346 3 3s-1.346 3-3 3-3-1.346-3-3 1.346-3 3-3z"/><path d="m45 20v4c0 .552.448 1 1 1h3v3c0 .552.448 1 1 1h4c.552 0 1-.448 1-1v-3h3c.552 0 1-.448 1-1v-4c0-.552-.448-1-1-1h-3v-3c0-.552-.448-1-1-1h-4c-.552 0-1 .448-1 1v3h-3c-.552 0-1 .448-1 1zm2 1h3c.552 0 1-.448 1-1v-3h2v3c0 .552.448 1 1 1h3v2h-3c-.552 0-1 .448-1 1v3h-2v-3c0-.552-.448-1-1-1h-3z"/></svg>