<svg fill="#bd943c" height="39.799999" width="45.200001" id="Layer_1" enable-background="new 0 0 511.973 511.973"  viewBox="0 0 511.973 511.973"  xmlns="http://www.w3.org/2000/svg"><g><path d="m84.566 511.973h342.841c3.534 0 6.862-.899 9.768-2.479 6.393-3.477 10.742-10.255 10.742-18.031 0-.007-.001-.013-.001-.019v-50.853c0-4.142-3.357-7.5-7.5-7.5s-7.5 3.358-7.5 7.5v50.873c0 2.052-1.13 3.842-2.797 4.79-.802.455-1.726.719-2.711.719h-39.698v-129.839c0-4.142-3.357-7.5-7.5-7.5s-7.5 3.358-7.5 7.5v129.839h-46.049l13.654-54.561c1.006-4.019-1.437-8.091-5.455-9.097-4.012-1.002-8.09 1.437-9.096 5.455l-14.565 58.203h-15.62c1.283-10.629 24.367-201.797 24.878-206.027l14.934 5.783 9.833 42.399-11.898 10.067c-5.383 4.555-6.109 12.684-1.618 18.123l9.161 11.091-6.346 25.361c-1.006 4.019 1.437 8.091 5.455 9.097 4.021 1.005 8.091-1.438 9.096-5.455l6.599-26.369c.994-3.971.031-8.227-2.576-11.385l-8.529-10.325 11.307-9.566c3.721-3.149 5.348-8.055 4.246-12.803l-7.812-33.682 46.287 17.926c17.067 7.061 34.323 27.716 34.323 53.588v30.796c0 4.142 3.357 7.5 7.5 7.5s7.5-3.358 7.5-7.5v-30.778c0-.006.001-.013.001-.019 0-29.149-17.963-56.901-43.684-67.487-.049-.02-.098-.04-.146-.059-10.228-3.96-91.86-35.575-100.687-38.993l-.002-3.253c18.635-11.599 31.072-32.259 31.072-55.778v-13.351c19.3-1.302 34.003-16.648 34.003-34.718 0-7.701-2.693-15.149-7.614-21.221l11.124-44.172c.011-.039.02-.078.029-.117 6.195-26.386-10.176-56.092-47.361-59.186-.951-.079-1.762-.588-2.167-1.361-7.719-14.728-39.704-59.528-127.176-17.67-31.266 14.961-50.4 34.385-56.873 57.73-7.191 25.936 3.168 50.656 12.011 65.619-4.497 5.912-6.944 13.032-6.944 20.378 0 18.108 14.742 33.42 34.002 34.718v13.35c0 23.5 12.417 44.145 31.026 55.749v2.969c-8.028 3.135-87.701 34.252-100.663 39.314-.042.017-.084.034-.126.051-21.039 8.659-43.684 33.471-43.684 67.487v116.669c0 .707.036 1.405.106 2.094 1.049 10.33 9.798 18.416 20.4 18.416zm195.901-15h-48.961l-20.388-168.842 25.366 25.366c10.064 10.064 26.353 10.064 36.417 0l28.308-28.308zm39.002-319.191-9.779 5.53c-6.689 3.783-10.845 10.908-10.845 18.593v6.756c0 1.315-.401 2.539-1.088 3.554-1.144 1.692-3.081 2.807-5.273 2.807h-5.352c-2.401 0-4.687-.908-6.434-2.555-4.542-4.283-10.481-6.641-16.724-6.641h-15.978c-6.242 0-12.181 2.358-16.725 6.641-1.092 1.03-2.394 1.77-3.803 2.181-.845.246-1.729.374-2.63.374h-5.353c-3.507 0-6.36-2.854-6.36-6.361v-6.756c0-7.686-4.155-14.81-10.845-18.593l-9.779-5.53v-34.883c41.246 0 48.581.274 60.22-1.033 11.372-.234 27.596-7.532 37.168-22.485 6.687 10.913 17.526 19.27 29.578 22.332v36.069zm15 3.043v-38.152c10.651 1.004 19.003 7.74 19.003 18.482 0 10.334-8.555 18.511-19.003 19.67zm-156.966.001c-10.472-1.161-19.002-9.359-19.002-19.67 0-10.765 8.339-17.223 19.002-18.416zm-14.539-49.371c-.054.025-.109.05-.163.075-.101.048-.205.093-.305.141-7.267-12.733-15.146-32.534-9.608-52.505 5.263-18.981 21.713-35.201 48.894-48.208 24.506-11.727 43.75-16.051 58.808-16.051 29.986 0 43.365 17.153 48.608 27.155 2.802 5.344 8.113 8.837 14.208 9.345 27.611 2.298 38.17 22.917 34.016 40.752l-9.693 38.489c-6.645-2.767-13.84-3.614-20.752-2.805-13.477-1.469-25.29-13.093-28.555-26.488-.95-3.921-4.425-6.659-8.45-6.659-4.019 0-7.492 2.733-8.45 6.661-3.485 14.294-16.096 24.504-29.511 25.532-.031.016-12.624 1.01-14.465 1.01h-52.086c-8.972-1.135-16.564.789-22.496 3.556zm29.539 77.769v-14.209l2.395 1.354c1.992 1.126 3.229 3.248 3.229 5.537v6.756c0 11.778 9.582 21.361 21.36 21.361h5.353c6.242 0 12.182-2.358 16.723-6.64 1.748-1.648 4.033-2.556 6.435-2.556h15.978c.9 0 1.785.128 2.63.374 1.409.411 2.711 1.151 3.804 2.182 4.543 4.282 10.481 6.64 16.724 6.64h5.352.001c10.306 0 18.931-7.337 20.926-17.061.285-1.389.435-2.827.435-4.3v-6.756c0-2.289 1.237-4.41 3.229-5.537l2.395-1.354v14.209c0 27.69-22.493 50.663-50.663 50.663h-25.64c-28.014-.001-50.666-22.82-50.666-50.663zm23.179 72.028c2.483-.97 6.342-4.325 7.489-9.487 6.332 2.015 13.094 3.121 19.995 3.121h25.64c7.238 0 13.5-1.124 19.967-3.113 1.072 4.698 4.386 8.605 9.032 10.401l8.214 3.181-1.896 15.706-41.829 41.829c-4.201 4.202-11.001 4.202-15.203 0l-38.886-38.886-2.287-18.938zm-39.098 15.477 14.934-5.783c1.094 9.06 23.783 196.953 24.879 206.027h-15.621l-29.669-118.563 9.161-11.091c4.492-5.437 3.766-13.567-1.618-18.123l-11.898-10.067zm-5.727 80.682-.003-.01c.001.002.002.006.003.01zm-91.8-2.617c0-28.91 20.509-47.871 34.333-53.591l46.316-18.089-7.85 33.849c-1.102 4.749.525 9.654 4.247 12.805l11.306 9.565-8.527 10.324c-2.608 3.157-3.572 7.413-2.578 11.385l29.01 115.931h-46.049v-129.839c0-4.142-3.357-7.5-7.5-7.5s-7.5 3.358-7.5 7.5v129.839h-39.699c-2.468 0-4.562-1.631-5.261-3.873-.161-.517-.248-1.067-.248-1.637z"/></g></svg>