<svg fill="#D3D3D3" id="Capa_1" enable-background="new 0 0 512 512" height="512" viewBox="0 0 512 512" width="512" xmlns="http://www.w3.org/2000/svg"><g><g><path d="m511.986 247.339c-.082-2.959-1.513-5.801-3.853-7.62l-60-46.629c-1.755-1.364-3.914-2.104-6.136-2.104h-56.717v-41.337h34.971c4.349 0 8.2-2.812 9.525-6.954 1.325-4.143-.18-8.666-3.722-11.19l-163.233-116.311c-3.529-2.515-8.275-2.469-11.756.109l-156.972 116.31c-3.467 2.569-4.895 7.072-3.542 11.17s5.181 6.865 9.496 6.865h28.699v41.337h-58.746c-2.223 0-4.381.74-6.136 2.104l-60 46.629c-2.412 1.876-3.864 4.841-3.864 7.896l.003 241.047c0 5.178 3.935 9.436 8.978 9.948.336.034.677.052 1.022.052h491.997c5.523 0 10-4.478 10-10v-241.047c0-.092-.005-.184-.014-.275zm-73.418-36.354 34.263 26.628h-87.549v-26.628zm-73.288-39.313h-47.708c2.576-7.028 3.892-14.54 3.911-22.023h43.797zm-78.795 11.067c-8.06 7.149-18.69 11.205-29.467 11.205-24.205 0-44.472-20.275-44.472-44.466 0-24.194 20.272-44.465 44.472-44.465 24.192 0 44.465 20.277 44.465 44.465 0 12.624-5.532 24.908-14.998 33.261zm-29.352-147.04 131.852 93.949h-70.613c-8.462-26.327-33.723-44.639-61.356-44.639-27.629 0-52.897 18.313-61.359 44.639h-65.317zm-64.59 113.949c.019 7.484 1.334 14.995 3.913 22.023h-47.709v-22.023zm-119.114 61.337h55.317v26.628h-89.581zm-53.426 267.676v-221.047h108.744v221.047zm226.258 0v-54.206h27.777v54.206zm245.739 0h-106.715l-.001-73.552c0-5.523-4.477-10-10-10s-10 4.478-10 10l.001 73.552h-71.247v-64.206c0-5.522-4.477-10-10-10h-47.777c-5.523 0-10 4.478-10 10v64.206h-77.513l-.001-286.989h59.536c12.2 14.048 30.303 22.325 48.916 22.27 18.487-.052 36.429-8.323 48.552-22.27h59.53l.002 125.526c0 5.522 4.477 10 10 10s10-4.478 10-10v-59.584h106.717z"/><path d="m438.639 350.249c17.1 0 31.012-13.912 31.012-31.012s-13.912-31.012-31.012-31.012-31.012 13.912-31.012 31.012 13.912 31.012 31.012 31.012zm0-42.023c6.072 0 11.012 4.939 11.012 11.012s-4.94 11.012-11.012 11.012-11.012-4.939-11.012-11.012 4.94-11.012 11.012-11.012z"/><path d="m438.639 436.368c17.1 0 31.012-13.912 31.012-31.013 0-17.1-13.912-31.012-31.012-31.012s-31.012 13.912-31.012 31.012c0 17.101 13.912 31.013 31.012 31.013zm0-42.024c6.072 0 11.012 4.939 11.012 11.012s-4.94 11.013-11.012 11.013-11.012-4.94-11.012-11.013 4.94-11.012 11.012-11.012z"/><path d="m74.37 288.226c-17.1 0-31.012 13.912-31.012 31.012s13.912 31.012 31.012 31.012 31.012-13.912 31.012-31.012-13.912-31.012-31.012-31.012zm0 42.023c-6.072 0-11.012-4.939-11.012-11.012s4.94-11.012 11.012-11.012 11.012 4.939 11.012 11.012-4.94 11.012-11.012 11.012z"/><path d="m74.37 374.344c-17.1 0-31.012 13.912-31.012 31.012 0 17.101 13.912 31.013 31.012 31.013s31.012-13.912 31.012-31.013c0-17.1-13.912-31.012-31.012-31.012zm0 42.024c-6.072 0-11.012-4.94-11.012-11.013s4.94-11.012 11.012-11.012 11.012 4.939 11.012 11.012-4.94 11.013-11.012 11.013z"/><path d="m259.983 239.657h-1.702c-33.911 0-61.5 27.589-61.5 61.5v60.76c0 5.522 4.477 10 10 10h104.702c5.523 0 10-4.478 10-10v-60.76c0-33.911-27.588-61.5-61.5-61.5zm41.432 59.18h-32.282v-38.151c17.764 4.015 31.246 19.446 32.282 38.151zm-52.282-38.151v38.151h-32.283c1.037-18.706 14.518-34.137 32.283-38.151zm-32.351 58.151h32.351v33.08h-32.351zm52.351 33.08v-33.08h32.351v33.08z"/><path d="m257.019 116.453c-5.523 0-10 4.478-10 10v18.883l-6.966 6.966c-3.905 3.905-3.905 10.237 0 14.143 1.953 1.952 4.512 2.929 7.071 2.929s5.119-.977 7.071-2.929l9.895-9.895c1.875-1.876 2.929-4.419 2.929-7.071v-23.025c0-5.523-4.477-10.001-10-10.001z"/><path d="m384.52 356.98c-1.616-3.939-5.731-6.46-9.972-6.144-4.177.311-7.772 3.269-8.894 7.3-2.37 8.519 7.197 15.782 14.763 11.244 4.192-2.513 5.983-7.884 4.103-12.4z"/></g></g></svg>