<?xml version="1.0" encoding="iso-8859-1"?>
<!-- Generator: Adobe Illustrator 19.0.0, SVG Export Plug-In . SVG Version: 6.00 Build 0)  -->
<svg fill="#bd943c" height="39.799999" width="45.200001" version="1.1" id="Capa_1" xmlns="http://www.w3.org/2000/svg" xmlns:xlink="http://www.w3.org/1999/xlink" x="0px" y="0px"
	 viewBox="0 0 480 480" style="enable-background:new 0 0 480 480;" xml:space="preserve">
<g>
	<g>
		<g>
			<path d="M204.32,179.254c-2.911-18.336-12.622-34.903-27.2-46.4c4.523-9.326,6.875-19.555,6.88-29.92
				c-0.003-19.024-7.811-37.214-21.6-50.32c-29.048-27.45-74.472-27.45-103.52,0C21.315,88.37,0.036,137.952,0,189.814v4.32
				c0.036,51.861,21.315,101.444,58.88,137.2c29.063,27.41,74.456,27.41,103.52,0c1.971-1.956,3.84-4.012,5.6-6.16v122.8h16v-160
				c0-2.32,0-4.64,0-6.96c0.013-19.004-7.8-37.175-21.6-50.24c-21.429-20.359-22.295-54.235-1.936-75.664
				c0.629-0.662,1.274-1.307,1.936-1.936c2.218-2.112,4.277-4.385,6.16-6.8c10.687,8.998,17.762,21.557,19.92,35.36l6,38.88
				c3.66,23.826,5.505,47.895,5.52,72v155.36h16v-155.04c-0.009-25.014-1.908-49.992-5.68-74.72L204.32,179.254z M153.483,139.291
				c-0.713,0.756-1.447,1.49-2.203,2.203v0.16c-4.867,4.742-9.065,10.125-12.48,16c-13.566-5.791-23.594-17.658-27.04-32L96,129.894
				c4.758,19.1,18.206,34.858,36.32,42.56c-3.733,12.746-3.733,26.294,0,39.04c-18.114,7.702-31.562,23.46-36.32,42.56l15.52,3.84
				c3.446-14.342,13.474-26.209,27.04-32c3.415,5.875,7.613,11.258,12.48,16c21.407,20.19,22.393,53.911,2.203,75.317
				c-0.713,0.756-1.447,1.49-2.203,2.203c-22.813,21.538-58.467,21.538-81.28,0C35.507,286.731,16.087,241.477,16,194.134v-4.32
				c-0.003-47.574,19.518-93.064,54-125.84c22.813-21.538,58.467-21.538,81.28,0C172.687,84.164,173.673,117.884,153.483,139.291z"
				/>
			<path d="M421.12,52.614c-29.048-27.45-74.472-27.45-103.52,0c-13.789,13.106-21.597,31.296-21.6,50.32
				c0.005,10.365,2.357,20.594,6.88,29.92c-14.577,11.497-24.289,28.064-27.2,46.4l-6,38.96c-3.772,24.728-5.671,49.706-5.68,74.72
				v155.04h16v-155.04c0.015-24.105,1.861-48.174,5.52-72l6-38.88c2.158-13.803,9.233-26.362,19.92-35.36
				c1.883,2.415,3.942,4.688,6.16,6.8c21.429,20.359,22.295,54.235,1.936,75.664c-0.629,0.662-1.274,1.307-1.936,1.936
				c-13.72,12.989-21.525,31.027-21.6,49.92c0,2.32,0,4.64,0,6.96v160h16v-122.8c1.76,2.148,3.629,4.204,5.6,6.16
				c29.063,27.41,74.456,27.41,103.52,0c37.565-35.756,58.844-85.339,58.88-137.2v-4.32
				C479.964,137.952,458.685,88.37,421.12,52.614z M464,194.134c0.003,47.574-19.518,93.064-54,125.84
				c-22.813,21.538-58.467,21.538-81.28,0c-21.407-20.19-22.393-53.911-2.203-75.317c0.713-0.756,1.447-1.49,2.203-2.203
				c4.867-4.742,9.065-10.125,12.48-16c13.566,5.791,23.594,17.658,27.04,32l15.76-4.4c-4.758-19.1-18.206-34.858-36.32-42.56
				c3.733-12.746,3.733-26.294,0-39.04c18.114-7.702,31.562-23.46,36.32-42.56l-16-3.84c-3.446,14.342-13.474,26.209-27.04,32
				c-3.415-5.875-7.613-11.258-12.48-16c-21.407-20.19-22.393-53.911-2.203-75.317c0.713-0.756,1.447-1.49,2.203-2.203
				c22.813-21.538,58.467-21.538,81.28,0c34.43,32.6,54.028,77.865,54.24,125.28V194.134z"/>
		</g>
	</g>
</g>
<g>
</g>
<g>
</g>
<g>
</g>
<g>
</g>
<g>
</g>
<g>
</g>
<g>
</g>
<g>
</g>
<g>
</g>
<g>
</g>
<g>
</g>
<g>
</g>
<g>
</g>
<g>
</g>
<g>
</g>
</svg>
