<svg fill="#bd943c" height="39.799999" width="45.200001" id="Layer_1" enable-background="new 0 0 512.014 512.014"  viewBox="0 0 512.014 512.014"  xmlns="http://www.w3.org/2000/svg"><path d="m461.788 445.488c-4.484-33.245-52.772-48.883-95.377-62.681-19.605-6.35-44.007-14.252-47.471-20.344-3.414-6-6.103-23.173-7.3-46.333 40.486-33.545 64.24-83.598 64.415-136.482h2.61c20.574 0 37.313-16.759 37.313-37.358s-16.738-37.358-37.313-37.358h-2.602c-.036-19.427 1.245-31.634-6.802-49.87-8.165-18.51-24.133-34.607-44.631-42.416-44.254-16.861-92.994-16.861-137.248 0-23.676 9.021-41.723 28.864-48.532 53.508-3.941 14.128-2.714 24.285-2.9 38.778h-2.602c-20.574 0-37.313 16.759-37.313 37.358s16.738 37.358 37.313 37.358h2.61c.176 53.044 24.061 103.037 64.415 136.483-1.198 23.159-3.886 40.333-7.3 46.333-3.464 6.091-27.865 13.993-47.471 20.343-42.604 13.798-90.893 29.436-95.377 62.681-5.526 40.986-2.273 59.236-2.132 59.993.706 3.787 4.012 6.533 7.864 6.533h400.098c3.853 0 7.158-2.746 7.864-6.533.143-.757 3.396-19.007-2.131-59.993zm-178.538-133.498c-8.707-5.622-16.922-11.575-24.605-17.824 37.028-4.002 51.648-35.422 72.705-60.031 6.388-7.462 13.88-10.958 22.362-10.431-9.543 33.069-29.549 63.078-57.744 84.439-5.953 4.509-12.154 3.765-12.718 3.847zm-131.3-215.577c63.291 16.231 143.647 13.266 208.113 4.512 0 86.346.611 89.298-2.647 107.061-48.803-6.097-52.248 65.921-101.41 70.376-9.329-.845-16.83-3.859-23.81-8.938-28.872-20.972-38.169-66.36-77.6-61.437-3.371-18.388-2.646-21.395-2.646-111.574zm64.097 211.73c0 .414-41.846-29.347-57.744-84.439 8.491-.519 15.976 2.969 22.362 10.432 14.274 16.68 24.987 35.491 41.47 47.749 9.858 10.665 20.993 20.737 33.271 30.105-24.098-.872-31.18 2.348-39.359-3.847zm162.618-187.211c11.752 0 21.313 9.581 21.313 21.358s-9.561 21.358-21.313 21.358h-2.602v-42.717h2.602zm-59.731-93.335c12.402 4.725 22.748 13.173 29.963 23.764-20.801 1.509-40.988 1.588-60.146.186-4.397-.315-8.24 2.987-8.563 7.395-.322 4.406 2.988 8.24 7.395 8.563 21.953 1.607 45.151 1.376 69.045-.688 1.96 5.729 3.131 11.772 3.383 17.973-109.317 15.351-178.124 3.083-207.619-4.798 1.887-16.181 10.032-31.259 22.702-41.834 12.593 6.556 26.716 12.197 42.067 16.793 4.234 1.262 8.691-1.137 9.959-5.369s-1.137-8.691-5.369-9.959c-10.857-3.251-21.009-7.055-30.373-11.336 36.845-15.313 84.385-17.139 127.556-.69zm-206.898 114.694c0-11.777 9.561-21.358 21.313-21.358h2.602v42.717h-2.602c-11.752-.001-21.313-9.582-21.313-21.359zm336.754 353.723h-385.565c-.436-8.072-.458-23.801 2.857-48.388 3.139-23.265 50.135-38.484 84.449-49.598 31.88-10.324 50.22-16.699 56.45-27.653 4.284-7.532 7.243-22.443 8.822-44.409 10.594 3.729 15.11 1.189 65.09 2.023 2.163-.121 7.96.603 15.316-2.024 1.579 21.966 4.538 36.878 8.822 44.409 6.23 10.955 24.57 17.33 56.45 27.654 34.314 11.113 81.311 26.333 84.448 49.598 3.319 24.599 3.296 40.33 2.861 48.388z"/><path d="m190.021 148.779h32.594c4.418 0 8-3.582 8-8s-3.582-8-8-8h-32.594c-4.418 0-8 3.582-8 8s3.582 8 8 8z"/><path d="m209.127 161.634c-3.863.827-6.431 4.093-6.431 7.85 0 5.124 4.769 8.856 9.561 7.84 3.757-.734 6.439-4.068 6.439-7.84.001-4.919-4.481-8.829-9.569-7.85z"/><path d="m289.4 148.779h32.594c4.418 0 8-3.582 8-8s-3.582-8-8-8h-32.594c-4.418 0-8 3.582-8 8s3.582 8 8 8z"/><path d="m299.757 161.634c-5.013 1.076-7.743 6.234-5.83 10.909 1.943 4.662 7.681 6.385 11.83 3.591 7.233-4.774 2.55-16.161-6-14.5z"/><path d="m244.494 256.552h23.025c4.418 0 8-3.582 8-8s-3.582-8-8-8h-23.025c-4.418 0-8 3.582-8 8s3.582 8 8 8z"/><path d="m251.74 62.954c4.418 0 8-3.582 8-8s-3.582-8-8-8c-4.523 0-8.013 3.653-8.013 8 .001 4.418 3.596 8 8.013 8z"/></svg>