<?xml version="1.0" encoding="UTF-8" standalone="no"?>
<svg
   xmlns:dc="http://purl.org/dc/elements/1.1/"
   xmlns:cc="http://creativecommons.org/ns#"
   xmlns:rdf="http://www.w3.org/1999/02/22-rdf-syntax-ns#"
   xmlns:svg="http://www.w3.org/2000/svg"
   xmlns="http://www.w3.org/2000/svg"
   height="60.400002"
   width="50.739616"
   xml:space="preserve"
   viewBox="0 0 50.739617 60.4"
   y="0px"
   x="0px"
   id="deprtment_icon"
   version="1.1"><metadata
   id="metadata15"><rdf:RDF><cc:Work
       rdf:about=""><dc:format>image/svg+xml</dc:format><dc:type
         rdf:resource="http://purl.org/dc/dcmitype/StillImage" /></cc:Work></rdf:RDF></metadata><defs
   id="defs13" />
<style
   id="style2"
   type="text/css">
	#deprtment_icon .st0{fill:#FFFFFF;}
	#deprtment_icon .st1{fill:#BD943C;}
</style>
<g
   transform="translate(0.03026464)"
   id="XMLID_1_">
	<path
   style="fill:#ffffff"
   d="m 25.4,60.4 -0.8,-1 c -2.2,-2.8 -6.3,-4 -10.3,-5.1 -1.8,-0.5 -3.5,-1 -5,-1.6 C 5.2,51 2.1,47.6 0.7,43.3 -0.8,38.5 0,33.2 3.2,28.2 8.3,20 3.1,13.7 1.3,11.9 1,11.6 0.9,11.2 0.9,10.8 0.9,10.4 1.1,10 1.4,9.8 L 12.6,0.4 c 0.6,-0.5 1.4,-0.5 1.9,0.1 l 4.1,4 5.9,-4.2 c 0.5,-0.4 1.2,-0.4 1.7,0 l 5.9,4.2 4.1,-4 C 36.7,0 37.6,0 38.1,0.4 l 11.2,9.4 c 0.3,0.3 0.5,0.6 0.5,1 0,0.4 -0.1,0.8 -0.4,1.1 -1.7,1.8 -7,8.1 -1.9,16.3 3.1,4.9 4,10.3 2.5,15.1 -1.4,4.3 -4.5,7.7 -8.6,9.4 -1.5,0.6 -3.2,1.1 -5,1.6 -4,1.1 -8.1,2.3 -10.3,5.1 z M 3.2,11 c 2,2.2 7.3,9.4 1.7,18.3 -2.8,4.4 -3.6,9.2 -2.2,13.4 1.2,3.7 3.9,6.7 7.4,8.1 1.4,0.6 3.1,1.1 4.8,1.6 3.7,1.1 7.8,2.2 10.5,4.9 2.7,-2.7 6.8,-3.9 10.5,-4.9 1.7,-0.5 3.4,-1 4.8,-1.6 3.5,-1.5 6.2,-4.4 7.4,-8.1 1.3,-4.2 0.5,-9 -2.2,-13.4 C 40.3,20.4 45.6,13.2 47.6,11 L 37.3,2.2 33.2,6.2 C 32.7,6.7 31.9,6.7 31.4,6.3 L 25.5,2.1 19.6,6.3 C 19,6.7 18.3,6.6 17.8,6.2 l -4.1,-4 z"
   class="st0"
   id="XMLID_8_" />
	<path
   style="fill:#ffffff"
   d="m 25.4,43.4 c -7.6,0 -13.8,-6.2 -13.8,-13.8 0,-7.6 6.2,-13.8 13.8,-13.8 7.6,0 13.8,6.2 13.8,13.8 0,7.6 -6.2,13.8 -13.8,13.8 z m 0,-25.6 c -6.5,0 -11.8,5.3 -11.8,11.8 0,6.5 5.3,11.8 11.8,11.8 6.5,0 11.8,-5.3 11.8,-11.8 0,-6.5 -5.3,-11.8 -11.8,-11.8 z"
   class="st0"
   id="XMLID_5_" />
	<path
   style="fill:#bd943c"
   d="M 21.2,36.4 20.5,36 C 20.1,35.7 20,35.3 20.1,34.8 l 1.4,-4.2 -4.2,-3.1 0.2,-0.8 C 17.6,26.3 18,26 18.5,26 H 23 l 1.6,-4.9 h 0.8 c 0.5,0 0.9,0.3 1,0.7 v 0 L 27.8,26 H 33 l 0.3,0.7 c 0.1,0.4 0,0.9 -0.4,1.2 l -3.6,2.6 1.6,4.9 -0.6,0.5 c -0.4,0.3 -0.9,0.3 -1.2,0 l -3.6,-2.6 z m 4.2,-5.5 0.7,0.4 1.8,1.3 -0.9,-2.8 0.6,-0.5 1.8,-1.3 h -3 L 26.1,27.3 25.4,25.2 24.5,28 h -0.8 -2.3 l 2.4,1.7 -0.2,0.8 -0.6,2.1 z"
   class="st1"
   id="XMLID_2_" />
	<rect
   style="fill:#bd943c"
   height="2"
   width="14.9"
   class="st1"
   y="11"
   x="17.6"
   id="XMLID_14_" />
	<rect
   style="fill:#bd943c"
   height="2"
   width="14.9"
   class="st1"
   y="46.099998"
   x="17.6"
   id="XMLID_13_" />
</g>
</svg>